<svg width="170" height="36" viewBox="0 0 170 36" fill="none" xmlns="http://www.w3.org/2000/svg">
<path d="M12.2727 35H0.443182V0.0909081H12.5114C15.9773 0.0909081 18.9545 0.789772 21.4432 2.1875C23.9432 3.57386 25.8636 5.56818 27.2045 8.17045C28.5455 10.7727 29.2159 13.8864 29.2159 17.5114C29.2159 21.1477 28.5398 24.2727 27.1875 26.8864C25.8466 29.5 23.9091 31.5057 21.375 32.9034C18.8523 34.3011 15.8182 35 12.2727 35ZM6.76705 29.5284H11.9659C14.3977 29.5284 16.4261 29.0852 18.0511 28.1989C19.6761 27.3011 20.8977 25.9659 21.7159 24.1932C22.5341 22.4091 22.9432 20.1818 22.9432 17.5114C22.9432 14.8409 22.5341 12.625 21.7159 10.8636C20.8977 9.09091 19.6875 7.76705 18.0852 6.89205C16.4943 6.00568 14.517 5.5625 12.1534 5.5625H6.76705V29.5284ZM46.5426 35.5114C43.9176 35.5114 41.6506 34.9659 39.7415 33.875C37.8438 32.7727 36.3835 31.2159 35.3608 29.2045C34.3381 27.1818 33.8267 24.8011 33.8267 22.0625C33.8267 19.3693 34.3381 17.0057 35.3608 14.9716C36.3949 12.9261 37.8381 11.3352 39.6903 10.1989C41.5426 9.05114 43.7188 8.47727 46.2188 8.47727C47.8324 8.47727 49.3551 8.73864 50.7869 9.26136C52.2301 9.77273 53.5028 10.5682 54.6051 11.6477C55.7188 12.7273 56.5938 14.1023 57.2301 15.7727C57.8665 17.4318 58.1847 19.4091 58.1847 21.7045V23.5966H36.7244V19.4375H52.2699C52.2585 18.2557 52.0028 17.2045 51.5028 16.2841C51.0028 15.3523 50.304 14.6193 49.4062 14.0852C48.5199 13.5511 47.4858 13.2841 46.304 13.2841C45.0426 13.2841 43.9347 13.5909 42.9801 14.2045C42.0256 14.8068 41.2813 15.6023 40.7472 16.5909C40.2244 17.5682 39.9574 18.642 39.946 19.8125V23.4432C39.946 24.9659 40.2244 26.2727 40.7812 27.3636C41.3381 28.4432 42.1165 29.2727 43.1165 29.8523C44.1165 30.4205 45.2869 30.7045 46.6278 30.7045C47.5256 30.7045 48.3381 30.5795 49.0653 30.3295C49.7926 30.0682 50.4233 29.6875 50.9574 29.1875C51.4915 28.6875 51.8949 28.0682 52.1676 27.3295L57.929 27.9773C57.5653 29.5 56.8722 30.8295 55.8494 31.9659C54.8381 33.0909 53.5426 33.9659 51.9631 34.5909C50.3835 35.2045 48.5767 35.5114 46.5426 35.5114Z" fill="#E5E5E5"/>
<path d="M92.3651 0.0909081V35H86.7401L70.2912 11.2216H70.0014V35H63.6776V0.0909081H69.3366L85.7685 23.8864H86.0753V0.0909081H92.3651ZM110.403 35.5114C107.847 35.5114 105.631 34.9489 103.756 33.8239C101.881 32.6989 100.426 31.125 99.392 29.1023C98.3693 27.0795 97.858 24.7159 97.858 22.0114C97.858 19.3068 98.3693 16.9375 99.392 14.9034C100.426 12.8693 101.881 11.2898 103.756 10.1648C105.631 9.03977 107.847 8.47727 110.403 8.47727C112.96 8.47727 115.176 9.03977 117.051 10.1648C118.926 11.2898 120.375 12.8693 121.398 14.9034C122.432 16.9375 122.949 19.3068 122.949 22.0114C122.949 24.7159 122.432 27.0795 121.398 29.1023C120.375 31.125 118.926 32.6989 117.051 33.8239C115.176 34.9489 112.96 35.5114 110.403 35.5114ZM110.438 30.5682C111.824 30.5682 112.983 30.1875 113.915 29.4261C114.847 28.6534 115.54 27.6193 115.994 26.3239C116.46 25.0284 116.693 23.5852 116.693 21.9943C116.693 20.392 116.46 18.9432 115.994 17.6477C115.54 16.3409 114.847 15.3011 113.915 14.5284C112.983 13.7557 111.824 13.3693 110.438 13.3693C109.017 13.3693 107.835 13.7557 106.892 14.5284C105.96 15.3011 105.261 16.3409 104.795 17.6477C104.341 18.9432 104.114 20.392 104.114 21.9943C104.114 23.5852 104.341 25.0284 104.795 26.3239C105.261 27.6193 105.96 28.6534 106.892 29.4261C107.835 30.1875 109.017 30.5682 110.438 30.5682ZM141.26 8.81818V13.5909H126.209V8.81818H141.26ZM129.925 2.54545H136.095V27.125C136.095 27.9545 136.22 28.5909 136.47 29.0341C136.732 29.4659 137.072 29.7614 137.493 29.9205C137.913 30.0795 138.379 30.1591 138.891 30.1591C139.277 30.1591 139.629 30.1307 139.947 30.0739C140.277 30.017 140.527 29.9659 140.697 29.9205L141.737 34.7443C141.408 34.858 140.936 34.983 140.322 35.1193C139.72 35.2557 138.982 35.3352 138.107 35.358C136.561 35.4034 135.169 35.1705 133.93 34.6591C132.692 34.1364 131.709 33.3295 130.982 32.2386C130.266 31.1477 129.913 29.7841 129.925 28.1477V2.54545ZM157.73 35.5114C155.105 35.5114 152.838 34.9659 150.929 33.875C149.031 32.7727 147.571 31.2159 146.548 29.2045C145.526 27.1818 145.014 24.8011 145.014 22.0625C145.014 19.3693 145.526 17.0057 146.548 14.9716C147.582 12.9261 149.026 11.3352 150.878 10.1989C152.73 9.05114 154.906 8.47727 157.406 8.47727C159.02 8.47727 160.543 8.73864 161.974 9.26136C163.418 9.77273 164.69 10.5682 165.793 11.6477C166.906 12.7273 167.781 14.1023 168.418 15.7727C169.054 17.4318 169.372 19.4091 169.372 21.7045V23.5966H147.912V19.4375H163.457C163.446 18.2557 163.19 17.2045 162.69 16.2841C162.19 15.3523 161.491 14.6193 160.594 14.0852C159.707 13.5511 158.673 13.2841 157.491 13.2841C156.23 13.2841 155.122 13.5909 154.168 14.2045C153.213 14.8068 152.469 15.6023 151.935 16.5909C151.412 17.5682 151.145 18.642 151.134 19.8125V23.4432C151.134 24.9659 151.412 26.2727 151.969 27.3636C152.526 28.4432 153.304 29.2727 154.304 29.8523C155.304 30.4205 156.474 30.7045 157.815 30.7045C158.713 30.7045 159.526 30.5795 160.253 30.3295C160.98 30.0682 161.611 29.6875 162.145 29.1875C162.679 28.6875 163.082 28.0682 163.355 27.3295L169.116 27.9773C168.753 29.5 168.06 30.8295 167.037 31.9659C166.026 33.0909 164.73 33.9659 163.151 34.5909C161.571 35.2045 159.764 35.5114 157.73 35.5114Z" fill="#F43F5E"/>
</svg>
